<mxfile host="Electron" modified="2024-05-21T13:00:01.038Z" agent="Mozilla/5.0 (X11; Linux x86_64) AppleWebKit/537.36 (KHTML, like Gecko) draw.io/24.4.0 Chrome/120.0.6099.109 Electron/28.1.0 Safari/537.36" etag="nnQ7i3m47uPenhATNkiq" version="24.4.0" type="device">
  <diagram name="Page-1" id="Kvh_eFbrMUo5SjppTzy5">
    <mxGraphModel dx="2200" dy="829" grid="1" gridSize="10" guides="1" tooltips="1" connect="1" arrows="1" fold="1" page="1" pageScale="1" pageWidth="850" pageHeight="1100" math="0" shadow="0">
      <root>
        <mxCell id="0" />
        <mxCell id="1" parent="0" />
        <mxCell id="hJzCMYruWEzStw3PX_7A-16" value="&lt;font style=&quot;font-size: 18px;&quot;&gt;&lt;b&gt;FPGA&lt;/b&gt;&lt;/font&gt;" style="rounded=0;whiteSpace=wrap;html=1;align=right;verticalAlign=bottom;fillColor=#dae8fc;strokeColor=#6c8ebf;" vertex="1" parent="1">
          <mxGeometry x="80" width="520" height="480" as="geometry" />
        </mxCell>
        <mxCell id="hJzCMYruWEzStw3PX_7A-15" value="" style="rounded=0;whiteSpace=wrap;html=1;fillColor=none;strokeColor=none;" vertex="1" parent="1">
          <mxGeometry x="-120" y="200" width="920" height="60" as="geometry" />
        </mxCell>
        <mxCell id="hJzCMYruWEzStw3PX_7A-1" value="&lt;font style=&quot;font-size: 18px;&quot;&gt;Wishbone Interconnect&lt;/font&gt;" style="rounded=1;whiteSpace=wrap;html=1;fillColor=#f5f5f5;strokeColor=#666666;fontColor=#333333;" vertex="1" parent="1">
          <mxGeometry x="240" y="220" width="200" height="60" as="geometry" />
        </mxCell>
        <mxCell id="hJzCMYruWEzStw3PX_7A-2" value="&lt;font style=&quot;font-size: 18px;&quot;&gt;spiflash&lt;/font&gt;" style="rounded=1;whiteSpace=wrap;html=1;fontStyle=1;fillColor=#f5f5f5;strokeColor=#666666;fontColor=#333333;" vertex="1" parent="1">
          <mxGeometry x="240" y="380" width="200" height="60" as="geometry" />
        </mxCell>
        <mxCell id="hJzCMYruWEzStw3PX_7A-3" value="Wishbone Data (Read)&lt;div style=&quot;font-size: 18px;&quot;&gt;Interface&lt;/div&gt;" style="shape=flexArrow;endArrow=classic;startArrow=classic;html=1;rounded=0;exitX=0.25;exitY=0;exitDx=0;exitDy=0;entryX=0.25;entryY=1;entryDx=0;entryDy=0;align=right;fontSize=18;labelBackgroundColor=none;fillColor=default;" edge="1" parent="1" source="hJzCMYruWEzStw3PX_7A-2" target="hJzCMYruWEzStw3PX_7A-1">
          <mxGeometry y="20" width="100" height="100" relative="1" as="geometry">
            <mxPoint x="70" y="360" as="sourcePoint" />
            <mxPoint x="170" y="260" as="targetPoint" />
            <mxPoint as="offset" />
          </mxGeometry>
        </mxCell>
        <mxCell id="hJzCMYruWEzStw3PX_7A-5" value="Wishbone Control&lt;div style=&quot;font-size: 18px;&quot;&gt;Interface&lt;/div&gt;" style="shape=flexArrow;endArrow=classic;startArrow=classic;html=1;rounded=0;exitX=0.25;exitY=0;exitDx=0;exitDy=0;entryX=0.25;entryY=1;entryDx=0;entryDy=0;align=left;fontSize=18;labelBackgroundColor=none;fillColor=default;" edge="1" parent="1">
          <mxGeometry y="-20" width="100" height="100" relative="1" as="geometry">
            <mxPoint x="390" y="380" as="sourcePoint" />
            <mxPoint x="390" y="280" as="targetPoint" />
            <mxPoint as="offset" />
          </mxGeometry>
        </mxCell>
        <mxCell id="hJzCMYruWEzStw3PX_7A-6" value="&lt;font style=&quot;font-size: 18px;&quot;&gt;(Single) SPI&lt;/font&gt;" style="shape=flexArrow;endArrow=classic;startArrow=classic;html=1;rounded=0;exitX=0.5;exitY=0;exitDx=0;exitDy=0;fillColor=default;" edge="1" parent="1" source="hJzCMYruWEzStw3PX_7A-7" target="hJzCMYruWEzStw3PX_7A-2">
          <mxGeometry x="-0.1667" width="100" height="100" relative="1" as="geometry">
            <mxPoint x="340" y="520" as="sourcePoint" />
            <mxPoint x="440" y="420" as="targetPoint" />
            <mxPoint as="offset" />
          </mxGeometry>
        </mxCell>
        <mxCell id="hJzCMYruWEzStw3PX_7A-7" value="&lt;font style=&quot;font-size: 18px;&quot;&gt;Spansion or Micron Flash Memory&amp;nbsp;&lt;/font&gt;&lt;div&gt;&lt;font style=&quot;font-size: 18px;&quot;&gt;on Arty A7&lt;/font&gt;&lt;div style=&quot;font-size: 18px;&quot;&gt;&lt;font style=&quot;font-size: 18px;&quot;&gt;or&lt;/font&gt;&lt;/div&gt;&lt;div style=&quot;font-size: 18px;&quot;&gt;&lt;font style=&quot;font-size: 18px;&quot;&gt;&lt;b&gt;FLASHSIM&lt;/b&gt; co-simulator on Verilator&lt;/font&gt;&lt;/div&gt;&lt;/div&gt;" style="rounded=1;whiteSpace=wrap;html=1;fillColor=#dae8fc;strokeColor=#6c8ebf;" vertex="1" parent="1">
          <mxGeometry x="160" y="560" width="360" height="160" as="geometry" />
        </mxCell>
        <mxCell id="hJzCMYruWEzStw3PX_7A-8" value="Ibex RISCV Processor" style="rounded=1;whiteSpace=wrap;html=1;fontSize=18;verticalAlign=top;fillColor=#f5f5f5;strokeColor=#666666;fontColor=#333333;" vertex="1" parent="1">
          <mxGeometry x="200" y="20" width="280" height="100" as="geometry" />
        </mxCell>
        <mxCell id="hJzCMYruWEzStw3PX_7A-10" value="" style="shape=flexArrow;endArrow=classic;startArrow=classic;html=1;rounded=0;entryX=0.5;entryY=1;entryDx=0;entryDy=0;fillColor=default;" edge="1" parent="1" target="hJzCMYruWEzStw3PX_7A-8">
          <mxGeometry width="100" height="100" relative="1" as="geometry">
            <mxPoint x="340" y="220" as="sourcePoint" />
            <mxPoint x="440" y="120" as="targetPoint" />
          </mxGeometry>
        </mxCell>
        <mxCell id="hJzCMYruWEzStw3PX_7A-11" value="&lt;font style=&quot;font-size: 18px;&quot;&gt;read operations&amp;nbsp;&lt;/font&gt;&lt;div style=&quot;font-size: 18px;&quot;&gt;&lt;font style=&quot;font-size: 18px;&quot;&gt;are&amp;nbsp;&lt;/font&gt;&lt;/div&gt;&lt;div style=&quot;font-size: 18px;&quot;&gt;&lt;font style=&quot;font-size: 18px;&quot;&gt;memory-mapped&lt;/font&gt;&lt;/div&gt;" style="endArrow=classic;html=1;rounded=0;entryX=0.321;entryY=0.667;entryDx=0;entryDy=0;entryPerimeter=0;align=right;dashed=1;labelBackgroundColor=none;" edge="1" parent="1" target="hJzCMYruWEzStw3PX_7A-8">
          <mxGeometry width="50" height="50" relative="1" as="geometry">
            <mxPoint x="290" y="280" as="sourcePoint" />
            <mxPoint x="340" y="220" as="targetPoint" />
          </mxGeometry>
        </mxCell>
        <mxCell id="hJzCMYruWEzStw3PX_7A-13" value="write operations&lt;div style=&quot;font-size: 17px;&quot;&gt;go through&lt;/div&gt;&lt;div style=&quot;font-size: 17px;&quot;&gt;flashdrvr&lt;/div&gt;" style="endArrow=classic;html=1;rounded=0;entryX=0.75;entryY=1;entryDx=0;entryDy=0;exitX=0.5;exitY=0.5;exitDx=0;exitDy=0;exitPerimeter=0;dashed=1;fontSize=17;align=left;labelBackgroundColor=none;" edge="1" parent="1" source="hJzCMYruWEzStw3PX_7A-9" target="hJzCMYruWEzStw3PX_7A-1">
          <mxGeometry x="-0.1" y="10" width="50" height="50" relative="1" as="geometry">
            <mxPoint x="570" y="80" as="sourcePoint" />
            <mxPoint x="620" y="30" as="targetPoint" />
            <mxPoint as="offset" />
          </mxGeometry>
        </mxCell>
        <mxCell id="hJzCMYruWEzStw3PX_7A-9" value="flashdrvr" style="rounded=1;whiteSpace=wrap;html=1;fontSize=18;fontStyle=1;fillColor=#e1d5e7;strokeColor=#9673a6;" vertex="1" parent="1">
          <mxGeometry x="330" y="60" width="120" height="40" as="geometry" />
        </mxCell>
      </root>
    </mxGraphModel>
  </diagram>
</mxfile>
